# xmcd
#
# Track frame offsets: 
#        150
#        22075
#        38952
#        58737
#        78350
#        92715
#        111605
#        127815
#        142247
#        157327
#        171202
#        189794
#        203537
#        219536
#        236966
#        251594
#        268884
#        294406
#        310601
#        326284
#        342746
#
# Disc length: 4793 seconds
#
# Revision: 0
# Processed by: cddbd v1.5.2PL0 Copyright (c) Steve Scherf et al.
# Submitted via: ExactAudioCopy v1.3
#
DISCID=4312b715
DTITLE=Various Artist - amour amour (a collection of the most beautif
DTITLE=ul love songs)
DYEAR=2000
DGENRE=Blues
TTITLE0=making Love (Out of Nothing) - Air Supply
TTITLE1=Eternal Flame - The Bangles
TTITLE2=Endless Love - Lionel Ritchie and Diana Ross
TTITLE3=I just called to say I love you - Stevie Wonder
TTITLE4=Make It With You - Bread
TTITLE5=The Lady in Red - Chris de Burgh
TTITLE6=Three times a Lady - The Commodores
TTITLE7=Longer - Dan Fogelberg
TTITLE8=Do you know where you are going (theme from Mahogany) - Diana 
TTITLE8=Ross
TTITLE9=Waiting for a girl like you - Foreigner
TTITLE10=Hello - Lionel Eichie
TTITLE11=I will always love you - Dolly Parton
TTITLE12=More than words - Extreme
TTITLE13=Cherish - Kool and The Gang
TTITLE14=Without you - Harry Nilsson
TTITLE15=Up where you belong - Joe Cocker and Jennifer Warnes
TTITLE16=Reunited - Peaches and Herb
TTITLE17=Unchained melody - The Righteous Brothers
TTITLE18=Tonight I celebrate my love - Roberta Flack and Peabo Bryson
TTITLE19=Save the best for last - Vanessa Williams
TTITLE20=Close to you - Carpenter
EXTD=
EXTT0=
EXTT1=
EXTT2=
EXTT3=
EXTT4=
EXTT5=
EXTT6=
EXTT7=
EXTT8=
EXTT9=
EXTT10=
EXTT11=
EXTT12=
EXTT13=
EXTT14=
EXTT15=
EXTT16=
EXTT17=
EXTT18=
EXTT19=
EXTT20=
PLAYORDER=
